<svg width="106" height="81" viewBox="0 0 106 81" fill="none" xmlns="http://www.w3.org/2000/svg">
<path d="M20.0533 9.96114C20.573 4.92646 24.828 1 30 1H95C100.523 1 105 5.47715 105 11V49C105 53.0611 102.579 56.5567 99.1019 58.1227L85.5123 73.0935C84.2095 77.1022 80.4432 80 76 80H11C5.47715 80 1 75.5229 1 70V32C1 27.3433 4.18291 23.4301 8.49183 22.3172L20.0533 9.96114Z" fill="white"/>
<path d="M7 25H83.5M83.5 25V75M83.5 25L100 6M20.0533 9.96114C20.573 4.92646 24.828 1 30 1H95C100.523 1 105 5.47715 105 11V49C105 53.0611 102.579 56.5567 99.1019 58.1227L85.5123 73.0935C84.2095 77.1022 80.4432 80 76 80H11C5.47715 80 1 75.5229 1 70V32C1 27.3433 4.18291 23.4301 8.49183 22.3172L20.0533 9.96114Z" stroke="#D9D9D9"/>
</svg>
